{"title":"Chromeskull.Laid.to.Rest.2.2011.Unrated.DC.DVDRip.XVID.AC3.HQ.Hi","uid":6700930,"size":1579965493,"categoryP":"video","categoryS":"movies","magnet":"?xt=urn:btih:15ddd84f485f28c804948a607f7bdc2b884336e3&amp;dn=Chromeskull.Laid.to.Rest.2.2011.Unrated.DC.DVDRip.XVID.AC3.HQ.Hi&amp;tr=udp%3A%2F%2Ftracker.openbittorrent.com%3A80&amp;tr=udp%3A%2F%2Fopen.demonii.com%3A1337&amp;tr=udp%3A%2F%2Ftracker.coppersurfer.tk%3A6969&amp;tr=udp%3A%2F%2Fexodus.desync.com%3A6969","seeders":0,"leechers":1,"uploader":"TvTeam","files":7,"time":1316969581,"description":". \n  &lt;a href=&quot;\nhttp://www.torrenting.com/&quot; rel=&quot;nofollow&quot; target=&quot;_NEW&quot;&gt;\nhttp://www.torrenting.com/&lt;/a&gt;        :     Greatest Movie Tracker on The Net!!!\n &lt;a href=&quot;\nhttp://www.Torrenting.com&quot; rel=&quot;nofollow&quot; target=&quot;_NEW&quot;&gt;\nhttp://www.Torrenting.com&lt;/a&gt;          :     Once &amp; For all ;)\n\n\n               www . Torrenting . Com \n\n(((((((((((((= Enjoy No RAR releases =))))))))))))))))))))\n\n\n...................................NFO:....................................\n\n.[IMG]http://img692.imageshack.us/img692/6968/39148157.jpg[/IMG]\n\n\n[color=blue][size=4][b]Chromeskull.Laid.to.Rest.2.2011.Unrated.DC.DVDRip.XVID.AC3.HQ.Hive-CM8[/b][/size][/color]\n\n\n[b]Thx Hive\n\nCM8 Doing It Right The First Time :D\n\n\nSource: DVD9\n\nEncode: \nDVD had great quality, there is no need to do a bdrip later on.\ndid the usual brightness, sharpness, rgb, denoise.\ndvd also had deleted scenes and bloopers, which i attached as single files.\ngot very nice - enjoy\n\nVideo: 720x400 @bitrate 1800 2pass\nAudio: English AC3 5.1 @320\nSample: yes, included\nBonus: yes, deleted scenes and bloopers[/b]\n\n\n[url]http://www.imdb.com/title/tt1792799/[/url]\n\n\nGeneral\nComplete name                    : Chromeskull.Laid.to.Rest.2.2011.DVDRip.XVID.AC3.HQ.Hive-CM8.avi\nFormat                           : AVI\nFormat/Info                      : Audio Video Interleave\nFile size                        : 1.39 GiB\nDuration                         : 1h 33mn\nOverall bit rate                 : 2 129 Kbps\nWriting application              : Nandub v1.0rc2\nWriting library                  : Nandub build 1853/release\n\nVideo\nID                               : 0\nFormat                           : MPEG-4 Visual\nFormat profile                   : Advanced Simple@L5\nFormat settings, BVOP            : 2\nFormat settings, QPel            : Yes\nFormat settings, GMC             : No warppoints\nFormat settings, Matrix          : Default (H.263)\nMuxing mode                      : Packed bitstream\nCodec ID                         : XVID\nCodec ID/Hint                    : XviD\nDuration                         : 1h 33mn\nBit rate                         : 1 800 Kbps\nWidth                            : 720 pixels\nHeight                           : 400 pixels\nDisplay aspect ratio             : 16:9\nFrame rate                       : 23.976 fps\nColor space                      : YUV\nChroma subsampling               : 4:2:0\nBit depth                        : 8 bits\nScan type                        : Progressive\nCompression mode                 : Lossy\nBits/(Pixel*Frame)               : 0.261\nStream size                      : 1.17 GiB (85%)\nWriting library                  : XviD 1.2.1 (UTC 2008-12-04)\n\nAudio\nID                               : 1\nFormat                           : AC-3\nFormat/Info                      : Audio Coding 3\nMode extension                   : CM (complete main)\nCodec ID                         : 2000\nDuration                         : 1h 33mn\nBit rate mode                    : Constant\nBit rate                         : 320 Kbps\nChannel(s)                       : 6 channels\nChannel positions                : Front: L C R, Side: L R, LFE\nSampling rate                    : 48.0 KHz\nBit depth                        : 16 bits\nCompression mode                 : Lossy\nStream size                      : 214 MiB (15%)\nAlignment                        : Split accross interleaves\nInterleave, duration             : 42 ms (1.00 video frame)\nInterleave, preload duration     : 500 ms\n\n\nPlot:\nThe sequel to the 2009 horror hit &quot;Laid to Rest&quot; brings back ChromeSkull, who\nbarely escaped death in the first movie and is hell-bent on continuing where\nhe left off and forging a new path of terror and destruction.\n\n\nCast:\nBrian Austin Green  ...   Preston\nThomas Dekker       ...   Tommy\nMimi Michaels       ...   Jess\nGail O'Grady        ...   Nancy\nJohnathon Schaech   ...   Agent Sells\n\n\n[img]http://img17.imageshack.us/img17/8752/89106758.png[/img]\n[img]http://img821.imageshack.us/img821/6649/chchr.png[/img]\n[img]http://img823.imageshack.us/img823/4129/chchch.png[/img]\n[img]http://img221.imageshack.us/img221/1163/chchchchnac.png[/img]\n[img]http://img155.imageshack.us/img155/6138/chchchchch.png[/img]\n[img]http://img33.imageshack.us/img33/4119/chchchchchch.png[/img]\n[img]http://img846.imageshack.us/img846/1510/chchchchchchch.png[/img]\n\n\n\nGreetz\n\nViSiON,SiC,SANTi,3LT0N,YanKeeS,MAGNET,THC,T0XiC,LKRG,FANTASIA-PLAY,FANTASIA-M,FLAWL3SS,\nD2U,WBZ,BHRG,NOVA,Vik,Rapeseed,SAFC,goldadvance,MEMORY100,KaN1vE,Unevano,Pinnz,Wayne\nMr Hive,cedrict wink,and all P2P groups\nGreat Work Guys :D\n\nLOOKING FOR ANYTHING YOU WANT TO LOOK AND SOUND BETTER\n\n&lt;a class=&quot;__cf_email__&quot; href=&quot;/cdn-cgi/l/email-protection&quot; data-cfemail=&quot;2e6d63166e465b5d46434f4742004d4143&quot;&gt;[email&amp;#160;protected]&lt;/a&gt;&lt;script data-cfhash='f9e31' type=&quot;text/javascript&quot;&gt;\n/* &lt;![CDATA[ */!function(){try{var t=&quot;currentScript&quot;in document?document.currentScript:function(){for(var t=document.getElementsByTagName(&quot;script&quot;),e=t.length;e--;)if(t[e].getAttribute(&quot;data-cfhash&quot;))return t[e]}();if(t&amp;&amp;t.previousSibling){var e,r,n,i,c=t.previousSibling,a=c.getAttribute(&quot;data-cfemail&quot;);if(a){for(e=&quot;&quot;,r=parseInt(a.substr(0,2),16),n=2;a.length-n;n+=2)i=parseInt(a.substr(n,2),16)^r,e+=String.fromCharCode(i);e=document.createTextNode(e),c.parentNode.replaceChild(e,c)}t.parentNode.removeChild(t);}}catch(u){}}()/* ]]&gt; */&lt;/script&gt;","torrent":{"xt":"urn:btih:15ddd84f485f28c804948a607f7bdc2b884336e3","amp;dn":"Chromeskull.Laid.to.Rest.2.2011.Unrated.DC.DVDRip.XVID.AC3.HQ.Hi","amp;tr":["udp%3A%2F%2Ftracker.openbittorrent.com%3A80","udp%3A%2F%2Fopen.demonii.com%3A1337","udp%3A%2F%2Ftracker.coppersurfer.tk%3A6969","udp%3A%2F%2Fexodus.desync.com%3A6969"],"infoHash":"15ddd84f485f28c804948a607f7bdc2b884336e3","infoHashBuffer":{"type":"Buffer","data":[21,221,216,79,72,95,40,200,4,148,138,96,127,123,220,43,136,67,54,227]},"announce":[],"urlList":[]}}